<svg width="20" height="20" viewBox="0 0 20 20" fill="none" xmlns="http://www.w3.org/2000/svg">
<path d="M16.999 9.002C16.2837 9.03392 15.6065 9.33294 15.101 9.84L10.271 14.669C9.862 15.079 9.571 15.592 9.431 16.154L9.22 16.999H5.5C4.83696 16.999 4.20107 16.7356 3.73223 16.2668C3.26339 15.7979 3 15.162 3 14.499V6.999H16.999V9.002ZM7 11C7.26522 11 7.51957 10.8946 7.70711 10.7071C7.89464 10.5196 8 10.2652 8 10C8 9.73478 7.89464 9.48043 7.70711 9.29289C7.51957 9.10536 7.26522 9 7 9C6.73478 9 6.48043 9.10536 6.29289 9.29289C6.10536 9.48043 6 9.73478 6 10C6 10.2652 6.10536 10.5196 6.29289 10.7071C6.48043 10.8946 6.73478 11 7 11ZM6 13C6 13.2652 6.10536 13.5196 6.29289 13.7071C6.48043 13.8946 6.73478 14 7 14C7.26522 14 7.51957 13.8946 7.70711 13.7071C7.89464 13.5196 8 13.2652 8 13C8 12.7348 7.89464 12.4804 7.70711 12.2929C7.51957 12.1054 7.26522 12 7 12C6.73478 12 6.48043 12.1054 6.29289 12.2929C6.10536 12.4804 6 12.7348 6 13ZM10 11C10.2652 11 10.5196 10.8946 10.7071 10.7071C10.8946 10.5196 11 10.2652 11 10C11 9.73478 10.8946 9.48043 10.7071 9.29289C10.5196 9.10536 10.2652 9 10 9C9.73478 9 9.48043 9.10536 9.29289 9.29289C9.10536 9.48043 9 9.73478 9 10C9 10.2652 9.10536 10.5196 9.29289 10.7071C9.48043 10.8946 9.73478 11 10 11ZM9 13C9 13.2652 9.10536 13.5196 9.29289 13.7071C9.48043 13.8946 9.73478 14 10 14C10.2652 14 10.5196 13.8946 10.7071 13.7071C10.8946 13.5196 11 13.2652 11 13C11 12.7348 10.8946 12.4804 10.7071 12.2929C10.5196 12.1054 10.2652 12 10 12C9.73478 12 9.48043 12.1054 9.29289 12.2929C9.10536 12.4804 9 12.7348 9 13ZM13 11C13.2652 11 13.5196 10.8946 13.7071 10.7071C13.8946 10.5196 14 10.2652 14 10C14 9.73478 13.8946 9.48043 13.7071 9.29289C13.5196 9.10536 13.2652 9 13 9C12.7348 9 12.4804 9.10536 12.2929 9.29289C12.1054 9.48043 12 9.73478 12 10C12 10.2652 12.1054 10.5196 12.2929 10.7071C12.4804 10.8946 12.7348 11 13 11ZM16.999 5.5C16.999 4.83696 16.7356 4.20107 16.2668 3.73223C15.7979 3.26339 15.162 3 14.499 3H5.499C4.83613 3.00027 4.2005 3.26377 3.73188 3.73259C3.26325 4.2014 3 4.83713 3 5.5V6H16.999V5.5ZM15.808 10.547L10.978 15.376C10.697 15.6576 10.4976 16.0101 10.401 16.396L10.027 17.894C9.98988 18.043 9.99192 18.199 10.0329 18.3469C10.0739 18.4948 10.1525 18.6297 10.261 18.7382C10.3695 18.8468 10.5042 18.9255 10.6521 18.9667C10.8 19.0078 10.956 19.01 11.105 18.973L12.603 18.598C12.989 18.5011 13.3415 18.3014 13.623 18.02L18.453 13.192C18.6267 13.0183 18.7644 12.8121 18.8584 12.5852C18.9524 12.3583 19.0008 12.1151 19.0008 11.8695C19.0008 11.6239 18.9524 11.3807 18.8584 11.1538C18.7644 10.9269 18.6267 10.7207 18.453 10.547C18.2793 10.3733 18.0731 10.2356 17.8462 10.1416C17.6193 10.0476 17.3761 9.9992 17.1305 9.9992C16.8849 9.9992 16.6417 10.0476 16.4148 10.1416C16.1879 10.2356 15.9817 10.3733 15.808 10.547Z" fill="#2A2A2A"/>
</svg>
