<svg width="227" height="6" viewBox="0 0 227 6" fill="none" xmlns="http://www.w3.org/2000/svg">
<path d="M0.866667 3C0.866667 4.17821 1.82179 5.13333 3 5.13333C4.17821 5.13333 5.13333 4.17821 5.13333 3C5.13333 1.82179 4.17821 0.866667 3 0.866667C1.82179 0.866667 0.866667 1.82179 0.866667 3ZM227 3L223 0.690599V5.3094L227 3ZM3 3.4H5V2.6H3V3.4ZM9 3.4H13V2.6H9V3.4ZM17 3.4H21V2.6H17V3.4ZM25 3.4H29V2.6H25V3.4ZM33 3.4H37V2.6H33V3.4ZM41 3.4H45V2.6H41V3.4ZM49 3.4H53V2.6H49V3.4ZM57 3.4H61V2.6H57V3.4ZM65 3.4H69V2.6H65V3.4ZM73 3.4H77V2.6H73V3.4ZM81 3.4H85V2.6H81V3.4ZM89 3.4H93V2.6H89V3.4ZM97 3.4H101V2.6H97V3.4ZM105 3.4H109V2.6H105V3.4ZM113 3.4H117V2.6H113V3.4ZM121 3.4H125V2.6H121V3.4ZM129 3.4H133V2.6H129V3.4ZM137 3.4H141V2.6H137V3.4ZM145 3.4H149V2.6H145V3.4ZM153 3.4H157V2.6H153V3.4ZM161 3.4H165V2.6H161V3.4ZM169 3.4H173V2.6H169V3.4ZM177 3.4H181V2.6H177V3.4ZM185 3.4H189V2.6H185V3.4ZM193 3.4H197V2.6H193V3.4ZM201 3.4H205V2.6H201V3.4ZM209 3.4H213V2.6H209V3.4ZM217 3.4H221V2.6H217V3.4Z" fill="#2A2A2A"/>
</svg>
