<svg width="115" height="120" viewBox="0 0 115 120" fill="none" xmlns="http://www.w3.org/2000/svg">
<g filter="url(#filter0_di_26_274)">
<path d="M11.09 48.8984L10.5117 49.6927H11.4942H15.8721C17.0182 49.6927 17.8893 50.5634 17.8893 51.7112C17.8893 52.8453 17.0331 53.7297 15.763 53.7297H6.45889C5.74481 53.7297 5.05838 53.3755 4.71732 52.6925L4.71731 52.6925C4.36704 51.991 4.45041 51.2036 4.89476 50.5798L11.351 41.7117L11.9293 40.9174H10.9468H6.56896C5.42282 40.9174 4.55168 40.0467 4.55168 38.8989C4.55168 37.7516 5.42227 36.8804 6.56896 36.8804H15.9821C16.6962 36.8804 17.3826 37.2346 17.7237 37.9176L17.7237 37.9176C18.074 38.6191 17.9906 39.4066 17.5462 40.0304L11.09 48.8984Z" fill="#EBEFF3" stroke="#F4F7F9"/>
<path d="M29.5198 48.2822L30.0981 47.488H29.1156H24.7378C23.7256 47.488 22.8207 46.6385 22.7206 45.4504C22.7302 44.3125 23.5975 43.4509 24.7378 43.4509H34.0419C34.756 43.4509 35.4424 43.8052 35.7835 44.4882C36.1338 45.1896 36.0504 45.9771 35.606 46.6009L29.1498 55.469L28.5715 56.2633H29.554H33.9318C35.078 56.2633 35.9491 57.1339 35.9491 58.2818C35.9491 59.4291 35.0785 60.3003 33.9318 60.3003H24.6277C23.9137 60.3003 23.2272 59.946 22.8861 59.263C22.5359 58.5616 22.6192 57.7741 23.0636 57.1503L29.5198 48.2822Z" fill="#EBEFF3" stroke="#F4F7F9"/>
<path d="M27.8025 84.8306C32.4515 84.8306 36.2783 81.0031 36.2783 76.3505C36.2783 71.6987 32.4522 67.8704 27.8025 67.8704C23.1536 67.8704 19.3268 71.6979 19.3268 76.3504L27.8025 84.8306ZM27.8025 84.8306C23.1537 84.8306 19.3275 81.0032 19.3268 76.3505L27.8025 84.8306Z" fill="#EBEFF3" stroke="#F4F7F9"/>
<path d="M41.1563 88.8967L41.6563 88.8966V88.3967V71.0942C41.6563 69.0796 43.2846 67.5426 45.2059 67.5426H86.5478L86.5484 67.5429H86.6902C95.3893 67.5429 102.499 74.6558 102.499 83.36L102.5 105.7C102.5 106.739 101.738 107.5 100.701 107.5H96.9798C95.9422 107.5 95.1808 106.738 95.1808 105.7V96.7197V96.2197H94.6808H14.4499H13.9499V96.7197V105.7C13.9499 106.739 13.188 107.5 12.151 107.5H8.42969C7.39215 107.5 6.63074 106.738 6.63074 105.7V64.7434C6.63074 63.7048 7.39272 62.9434 8.42969 62.9434H12.1502C13.1877 62.9434 13.9492 63.7054 13.9492 64.7434V88.3974V88.8974L14.4492 88.8974L41.1563 88.8967Z" fill="#EBEFF3" stroke="#F4F7F9"/>
<path d="M52.5648 52.3434L52.3836 52.1622L52.3825 52.1623C52.1228 51.9052 51.8387 51.6367 51.5461 51.4341C40.8289 40.6758 40.8399 23.2766 51.5793 12.532L51.5811 12.5302C61.8964 2.10226 78.5579 1.8835 89.3099 11.5647L89.6697 11.8886L90.0051 11.5395L92.7369 8.69642C93.4607 7.97732 94.6194 8.31641 94.85 9.232C94.8502 9.23274 94.8503 9.23348 94.8505 9.23423L98.1333 22.9183L98.135 22.9257L98.137 22.9331C98.3671 23.7777 97.5949 24.6311 96.6609 24.3974L96.6564 24.3963L82.979 21.112C82.9783 21.1118 82.9776 21.1116 82.9768 21.1115C82.0601 20.8806 81.7214 19.7173 82.4448 18.9936L85.7286 15.7081L86.1093 15.3272L85.7013 14.9758C76.8625 7.36358 63.4308 7.58223 55.0305 15.9866C46.2979 24.7235 46.2979 39.0572 55.0305 47.7941L55.7971 48.561L55.8055 48.5694L55.8143 48.5774C56.8178 49.4905 56.9058 51.1454 55.9999 52.1421L55.9926 52.1501L55.9857 52.1584C55.5483 52.6833 54.8242 52.9638 54.181 52.9638C53.6213 52.9638 52.9959 52.7748 52.5648 52.3434Z" fill="#EBEFF3" stroke="#F4F7F9"/>
<path d="M73.4924 30.2477V30.5225L73.7243 30.6698L80.6153 35.0466C81.6949 35.7704 82.0683 37.3168 81.3499 38.5079C80.7777 39.2615 80.0495 39.6038 79.3565 39.6032H79.356C78.8837 39.6032 78.4311 39.5108 77.9777 39.2403L69.775 33.9882L69.775 33.9881L69.7705 33.9853C69.0367 33.5264 68.5822 32.699 68.5822 31.8907V31.8907L68.5814 19.2968C68.5814 19.2968 68.5814 19.2968 68.5814 19.2968C68.5814 17.9297 69.6717 16.8398 71.0369 16.8398C72.4027 16.8398 73.4924 17.9303 73.4924 19.2968V30.2477Z" fill="#EBEFF3" stroke="#F4F7F9"/>
<path d="M63.8639 53.2773L63.8639 53.2775L63.8739 53.2808L64.8588 53.6094L64.8692 53.6129L64.8797 53.6159C66.1524 53.9794 66.9803 55.3532 66.6137 56.7295L66.6136 56.7295L66.6118 56.737C66.3421 57.8161 65.3477 58.5482 64.2512 58.5482C64.1389 58.5482 64.026 58.5479 63.9176 58.537C63.8037 58.5257 63.7373 58.5062 63.7077 58.4915L63.6587 58.4671L63.6056 58.4538C63.409 58.4048 63.1822 58.3296 62.9309 58.2458L62.919 58.2418C62.6895 58.1653 62.4386 58.0817 62.2084 58.0227C60.9375 57.555 60.2238 56.0906 60.6717 54.8362C61.1307 53.551 62.6037 52.8269 63.8639 53.2773Z" fill="#EBEFF3" stroke="#F4F7F9"/>
<path d="M75.3959 53.9552L75.3959 53.9553L75.4045 53.9536C76.7955 53.6752 78.1138 54.6089 78.2012 55.9054L78.2034 55.9378L78.2098 55.9697C78.4858 57.3517 77.6644 58.6138 76.303 58.8862L76.2912 58.8885L76.2794 58.8915C76.0992 58.9367 75.8881 58.9611 75.634 58.9894L75.616 58.9914C75.4011 59.0153 75.1529 59.0429 74.9195 59.0957H74.5405C73.3426 59.0957 72.2619 58.2709 72.0803 57.0087C71.8965 55.622 72.82 54.3583 74.1685 54.1782L74.1802 54.1766L74.1918 54.1745L75.3959 53.9552Z" fill="#EBEFF3" stroke="#F4F7F9"/>
<path d="M84.8874 49.6087L84.9078 49.5951L84.9268 49.5795C85.9191 48.7668 87.5442 48.9669 88.2433 50.0168L88.2642 50.0481L88.2895 50.076C89.1782 51.0538 89.009 52.6856 87.9219 53.5013L87.9218 53.5014C87.7084 53.6616 87.5212 53.7954 87.3293 53.9325L87.3278 53.9336C87.143 54.0656 86.9538 54.2008 86.7393 54.3614C86.2505 54.6501 85.6925 54.8251 85.2665 54.8251C84.5401 54.8251 83.7269 54.4576 83.2825 53.7463L83.2787 53.7402L83.2747 53.7342C82.554 52.6514 82.815 51.0913 83.9145 50.2576L84.8874 49.6087Z" fill="#EBEFF3" stroke="#F4F7F9"/>
</g>
<defs>
<filter id="filter0_di_26_274" x="0" y="0" width="115" height="120" filterUnits="userSpaceOnUse" color-interpolation-filters="sRGB">
<feFlood flood-opacity="0" result="BackgroundImageFix"/>
<feColorMatrix in="SourceAlpha" type="matrix" values="0 0 0 0 0 0 0 0 0 0 0 0 0 0 0 0 0 0 127 0" result="hardAlpha"/>
<feOffset dx="4" dy="4"/>
<feGaussianBlur stdDeviation="4"/>
<feComposite in2="hardAlpha" operator="out"/>
<feColorMatrix type="matrix" values="0 0 0 0 1 0 0 0 0 1 0 0 0 0 1 0 0 0 0.75 0"/>
<feBlend mode="normal" in2="BackgroundImageFix" result="effect1_dropShadow_26_274"/>
<feBlend mode="normal" in="SourceGraphic" in2="effect1_dropShadow_26_274" result="shape"/>
<feColorMatrix in="SourceAlpha" type="matrix" values="0 0 0 0 0 0 0 0 0 0 0 0 0 0 0 0 0 0 127 0" result="hardAlpha"/>
<feOffset dx="2" dy="2"/>
<feGaussianBlur stdDeviation="4"/>
<feComposite in2="hardAlpha" operator="arithmetic" k2="-1" k3="1"/>
<feColorMatrix type="matrix" values="0 0 0 0 0.741176 0 0 0 0 0.760784 0 0 0 0 0.780392 0 0 0 0.75 0"/>
<feBlend mode="normal" in2="shape" result="effect2_innerShadow_26_274"/>
</filter>
</defs>
</svg>
