<svg width="56" height="56" viewBox="0 0 56 56" fill="none" xmlns="http://www.w3.org/2000/svg">
<g filter="url(#filter0_di_26_243)">
<path d="M34.066 7.54003L34.0662 7.53915L34.0407 7.41513C33.9136 6.79797 34.1891 6.16906 34.7271 5.84699L34.7271 5.84697C35.2627 5.52629 35.9413 5.57752 36.4231 5.97465C40.7549 9.95914 43.5 15.6608 43.5 21.999C43.5 33.8659 33.874 43.5 22.019 43.5C15.6861 43.5 9.99149 40.7521 6.05734 36.3809C5.67674 35.9182 5.62717 35.2656 5.93582 34.7506L5.93627 34.7498C6.24485 34.2328 6.8473 33.9681 7.43668 34.0892L7.44606 34.0912L7.4555 34.0927C8.93362 34.3379 10.4585 34.4997 12.0273 34.4997C24.4355 34.4997 34.5084 24.4171 34.5084 11.9988C34.5084 10.4725 34.356 8.98227 34.066 7.54003Z" fill="#EBEFF3" stroke="#F4F7F9"/>
<path d="M21.8803 11.2341C22.2954 11.319 22.709 11.4023 23.1007 11.4801C22.7089 11.5578 22.2954 11.6412 21.8806 11.7258C19.3107 12.2431 17.3037 14.2521 16.7869 16.8237C16.7025 17.2381 16.6194 17.6512 16.5419 18.0426C16.4643 17.6513 16.3813 17.2382 16.2967 16.8236C15.7802 14.2521 13.7732 12.2431 11.2034 11.7258C10.7886 11.6412 10.3751 11.5578 9.98324 11.4801C10.375 11.4023 10.7886 11.319 11.2036 11.2342C13.7733 10.7167 15.7802 8.70813 16.2967 6.13656C16.3813 5.72198 16.4644 5.30877 16.5419 4.91748C16.6194 5.30894 16.7025 5.72215 16.7869 6.13649C17.3037 8.70805 19.3106 10.7168 21.8803 11.2341Z" fill="#EBEFF3" stroke="#F4F7F9"/>
<path d="M7.84515 17.7191C7.89832 17.4512 7.95537 17.1637 8.01304 16.8748C8.0788 17.2038 8.14373 17.5309 8.2027 17.8291L8.20291 17.8301C8.4008 18.8195 9.17292 19.593 10.1625 19.7912L10.1634 19.7914C10.4621 19.8506 10.7899 19.9157 11.1194 19.9815C10.7897 20.0474 10.4619 20.1126 10.1634 20.1718L10.1625 20.172C9.17307 20.3702 8.40083 21.1433 8.20291 22.1331L8.20272 22.1341C8.14373 22.4321 8.0788 22.7593 8.01305 23.0883C7.9613 22.829 7.91004 22.5709 7.86163 22.327C7.84861 22.2615 7.8358 22.197 7.82325 22.1337L7.82316 22.1333C7.62559 21.1433 6.85292 20.3702 5.86358 20.172L5.86262 20.1718C5.56418 20.1126 5.23644 20.0474 4.90681 19.9815C5.23631 19.9157 5.564 19.8506 5.86262 19.7914L5.86357 19.7912C6.8529 19.593 7.62555 18.8196 7.82315 17.83L7.82326 17.8294C7.83048 17.793 7.83778 17.7563 7.84515 17.7191Z" fill="#EBEFF3" stroke="#F4F7F9"/>
</g>
<defs>
<filter id="filter0_di_26_243" x="0" y="0" width="56" height="56" filterUnits="userSpaceOnUse" color-interpolation-filters="sRGB">
<feFlood flood-opacity="0" result="BackgroundImageFix"/>
<feColorMatrix in="SourceAlpha" type="matrix" values="0 0 0 0 0 0 0 0 0 0 0 0 0 0 0 0 0 0 127 0" result="hardAlpha"/>
<feOffset dx="4" dy="4"/>
<feGaussianBlur stdDeviation="4"/>
<feComposite in2="hardAlpha" operator="out"/>
<feColorMatrix type="matrix" values="0 0 0 0 1 0 0 0 0 1 0 0 0 0 1 0 0 0 0.75 0"/>
<feBlend mode="normal" in2="BackgroundImageFix" result="effect1_dropShadow_26_243"/>
<feBlend mode="normal" in="SourceGraphic" in2="effect1_dropShadow_26_243" result="shape"/>
<feColorMatrix in="SourceAlpha" type="matrix" values="0 0 0 0 0 0 0 0 0 0 0 0 0 0 0 0 0 0 127 0" result="hardAlpha"/>
<feOffset dx="2" dy="2"/>
<feGaussianBlur stdDeviation="4"/>
<feComposite in2="hardAlpha" operator="arithmetic" k2="-1" k3="1"/>
<feColorMatrix type="matrix" values="0 0 0 0 0.741176 0 0 0 0 0.760784 0 0 0 0 0.780392 0 0 0 0.75 0"/>
<feBlend mode="normal" in2="shape" result="effect2_innerShadow_26_243"/>
</filter>
</defs>
</svg>
