<svg width="56" height="56" viewBox="0 0 56 56" fill="none" xmlns="http://www.w3.org/2000/svg">
<g filter="url(#filter0_di_26_424)">
<path d="M19.5713 24.2536C19.5713 24.5619 19.5972 24.8643 19.647 25.1589C19.1759 25.2526 18.6887 25.3019 18.1891 25.3019C14.1183 25.3019 10.8224 22.0358 10.8224 18.0258C10.8224 14.0159 14.1181 10.7498 18.1891 10.7498C21.324 10.7498 24.0014 12.6872 25.0649 15.4108C23.6443 16.4474 22.58 17.9387 22.0943 19.6691C20.5788 20.6402 19.5713 22.33 19.5713 24.2536Z" fill="#EBEFF3" stroke="#F4F7F9"/>
<path d="M18.0398 7.02895V4.64171C18.0398 4.56936 18.1016 4.5 18.189 4.5C18.2765 4.5 18.3382 4.56922 18.3382 4.64171V7.02895C18.3382 7.10144 18.2765 7.17066 18.189 7.17066C18.1016 7.17066 18.0398 7.1013 18.0398 7.02895Z" fill="#EBEFF3" stroke="#F4F7F9"/>
<path d="M18.0398 31.4096V29.0221C18.0398 28.9497 18.1016 28.8804 18.189 28.8804C18.2765 28.8804 18.3382 28.9496 18.3382 29.0221V31.4096C18.3382 31.482 18.2764 31.5513 18.189 31.5513C18.1017 31.5513 18.0398 31.4818 18.0398 31.4096Z" fill="#EBEFF3" stroke="#F4F7F9"/>
<path d="M10.7816 10.7039L10.4303 10.3481C10.3713 10.4064 10.2736 10.4061 10.2152 10.3483L8.50727 8.66009L8.50686 8.65968C8.45193 8.60551 8.45163 8.51895 8.50707 8.46421L8.50707 8.46421L8.50768 8.4636C8.56569 8.40613 8.66333 8.40583 8.72192 8.46381L8.72218 8.46407L10.4299 10.1515C10.4299 10.1515 10.4299 10.1515 10.4299 10.1515C10.4854 10.2065 10.4854 10.2936 10.4299 10.3485L10.7816 10.7039ZM10.7816 10.7039C10.528 10.9543 10.117 10.9543 9.86371 10.7039L8.15577 9.01568L9.07362 8.10841L10.7816 9.79608C11.0349 10.0468 11.0349 10.4533 10.7816 10.7039Z" fill="#EBEFF3" stroke="#F4F7F9"/>
<path d="M27.6558 8.46383L27.6563 8.46336C27.7143 8.40588 27.812 8.40559 27.8706 8.46357L27.8712 8.46417C27.9261 8.51834 27.9264 8.60491 27.871 8.65964L27.8708 8.65984L26.1628 10.3481L26.1626 10.3483C26.1046 10.4058 26.0066 10.4061 25.948 10.3481L25.5965 10.7037L25.9482 10.3483C25.8926 10.2933 25.8926 10.2063 25.9481 10.1513C25.9481 10.1513 25.9482 10.1512 25.9482 10.1512L27.6558 8.46383Z" fill="#EBEFF3" stroke="#F4F7F9"/>
<path d="M10.2152 25.7035L10.2156 25.7031C10.2735 25.6457 10.371 25.6452 10.4301 25.7035L10.4303 25.7037C10.4852 25.7579 10.4855 25.8448 10.4301 25.8996L8.72212 27.5878L8.72191 27.588C8.66385 27.6455 8.56591 27.6458 8.50727 27.5878L8.50686 27.5874C8.45193 27.5333 8.45163 27.4467 8.50707 27.392L8.50727 27.3918L10.2152 25.7035Z" fill="#EBEFF3" stroke="#F4F7F9"/>
<path d="M7.06427 18.1675H4.64919C4.56164 18.1675 4.5 18.0982 4.5 18.0257C4.5 17.9533 4.56164 17.884 4.64919 17.884H7.06427C7.15182 17.884 7.21346 17.9533 7.21346 18.0257C7.21346 18.0982 7.15182 18.1675 7.06427 18.1675Z" fill="#EBEFF3" stroke="#F4F7F9"/>
<path d="M23.8628 21.3175L23.7527 20.8666L24.1682 20.9309C24.586 18.2303 26.9523 16.1511 29.8119 16.1511C32.0057 16.1511 33.9108 17.375 34.8672 19.1678L35.0501 19.5107L35.4275 19.418C35.7446 19.3402 36.0761 19.2989 36.4189 19.2989C38.2907 19.2989 39.8699 20.5347 40.3708 22.2185L40.4839 22.5989L40.88 22.5751C40.9344 22.5718 40.9865 22.57 41.0366 22.57C42.4014 22.57 43.5 23.6642 43.5 24.9992C43.5 26.3341 42.4015 27.4279 41.0366 27.4279H25.0872C23.306 27.4279 21.87 26.0002 21.87 24.2538C21.87 22.9331 22.6897 21.7947 23.8628 21.3175Z" fill="#EBEFF3" stroke="#F4F7F9"/>
<path d="M34.5487 10.9041L34.1995 10.4942L33.8165 10.8728L32.3516 12.3212L32.1806 12.49C32.1217 12.5481 32.0236 12.5481 31.9647 12.49L31.9647 12.49C31.9098 12.4358 31.9095 12.3489 31.9649 12.2941L34.1008 10.1829C34.1008 10.1828 34.1009 10.1828 34.1009 10.1827C34.1306 10.1535 34.1721 10.1372 34.2153 10.1391L34.2161 10.1391C34.2594 10.1409 34.2986 10.1606 34.3245 10.1911L34.3247 10.1913L35.6396 11.7343L36.011 12.17L36.3928 11.7433L37.7413 10.2362L37.7415 10.2359C37.7679 10.2064 37.807 10.1875 37.8497 10.186C37.8947 10.185 37.9348 10.2022 37.9618 10.2289L37.9626 10.2297L40.0508 12.2938L40.051 12.294C40.1059 12.3482 40.1062 12.4351 40.0508 12.4899L40.0506 12.4901C39.9925 12.5476 39.8946 12.5479 39.8359 12.4899L38.2359 10.9083L37.8622 10.539L37.5118 10.9304L36.1216 12.4834L36.1209 12.4841C36.0939 12.5144 36.0523 12.534 36.0053 12.5335C35.9607 12.533 35.9196 12.5133 35.892 12.481L35.892 12.4809L34.5487 10.9041Z" fill="#EBEFF3" stroke="#F4F7F9"/>
<path d="M42.8803 43.5H8.23634C10.0677 42.7853 11.8566 41.8163 13.6276 40.8049C14.0795 40.5468 14.5302 40.286 14.9805 40.0254C17.4287 38.6087 19.8651 37.1988 22.4239 36.2677C25.4324 35.1729 28.5718 34.7571 32.0166 35.8044C35.2732 36.7944 38.8549 39.1077 42.8803 43.5Z" fill="#EBEFF3" stroke="#F4F7F9"/>
</g>
<defs>
<filter id="filter0_di_26_424" x="0" y="0" width="56" height="56" filterUnits="userSpaceOnUse" color-interpolation-filters="sRGB">
<feFlood flood-opacity="0" result="BackgroundImageFix"/>
<feColorMatrix in="SourceAlpha" type="matrix" values="0 0 0 0 0 0 0 0 0 0 0 0 0 0 0 0 0 0 127 0" result="hardAlpha"/>
<feOffset dx="4" dy="4"/>
<feGaussianBlur stdDeviation="4"/>
<feComposite in2="hardAlpha" operator="out"/>
<feColorMatrix type="matrix" values="0 0 0 0 1 0 0 0 0 1 0 0 0 0 1 0 0 0 0.75 0"/>
<feBlend mode="normal" in2="BackgroundImageFix" result="effect1_dropShadow_26_424"/>
<feBlend mode="normal" in="SourceGraphic" in2="effect1_dropShadow_26_424" result="shape"/>
<feColorMatrix in="SourceAlpha" type="matrix" values="0 0 0 0 0 0 0 0 0 0 0 0 0 0 0 0 0 0 127 0" result="hardAlpha"/>
<feOffset dx="2" dy="2"/>
<feGaussianBlur stdDeviation="4"/>
<feComposite in2="hardAlpha" operator="arithmetic" k2="-1" k3="1"/>
<feColorMatrix type="matrix" values="0 0 0 0 0.741176 0 0 0 0 0.760784 0 0 0 0 0.780392 0 0 0 0.75 0"/>
<feBlend mode="normal" in2="shape" result="effect2_innerShadow_26_424"/>
</filter>
</defs>
</svg>
